<svg width="88" height="23" viewBox="0 0 88 23" fill="none" xmlns="http://www.w3.org/2000/svg">
<path d="M24.2109 14.3161H25.8984C25.8105 15.1247 25.5791 15.8483 25.2041 16.487C24.8291 17.1257 24.2988 17.6325 23.6133 18.0075C22.9277 18.3766 22.0723 18.5612 21.0469 18.5612C20.2969 18.5612 19.6143 18.4206 18.999 18.1393C18.3896 17.8581 17.8652 17.4597 17.4258 16.944C16.9863 16.4225 16.6465 15.7985 16.4062 15.072C16.1719 14.3395 16.0547 13.5251 16.0547 12.6286V11.3542C16.0547 10.4577 16.1719 9.64618 16.4062 8.91962C16.6465 8.18719 16.9893 7.56024 17.4346 7.03876C17.8857 6.51727 18.4277 6.11591 19.0605 5.83466C19.6934 5.55341 20.4053 5.41278 21.1963 5.41278C22.1631 5.41278 22.9805 5.59442 23.6484 5.9577C24.3164 6.32098 24.835 6.82489 25.2041 7.46942C25.5791 8.10809 25.8105 8.8493 25.8984 9.69305H24.2109C24.1289 9.0954 23.9766 8.5827 23.7539 8.15497C23.5312 7.72137 23.2148 7.38739 22.8047 7.15302C22.3945 6.91864 21.8584 6.80145 21.1963 6.80145C20.6279 6.80145 20.127 6.90985 19.6934 7.12665C19.2656 7.34344 18.9053 7.65106 18.6123 8.0495C18.3252 8.44794 18.1084 8.92548 17.9619 9.48212C17.8154 10.0388 17.7422 10.6569 17.7422 11.3366V12.6286C17.7422 13.2556 17.8066 13.8444 17.9355 14.3952C18.0703 14.946 18.2725 15.4294 18.542 15.8454C18.8115 16.2614 19.1543 16.5895 19.5703 16.8298C19.9863 17.0641 20.4785 17.1813 21.0469 17.1813C21.7676 17.1813 22.3418 17.0671 22.7695 16.8386C23.1973 16.61 23.5195 16.2819 23.7363 15.8542C23.959 15.4265 24.1172 14.9138 24.2109 14.3161ZM33.5713 16.7595V11.864C33.5713 11.489 33.4951 11.1638 33.3428 10.8884C33.1963 10.6071 32.9736 10.3903 32.6748 10.238C32.376 10.0856 32.0068 10.0095 31.5674 10.0095C31.1572 10.0095 30.7969 10.0798 30.4863 10.2204C30.1816 10.361 29.9414 10.5456 29.7656 10.7741C29.5957 11.0026 29.5107 11.2487 29.5107 11.5124H27.8848C27.8848 11.1725 27.9727 10.8356 28.1484 10.5016C28.3242 10.1677 28.5762 9.86591 28.9043 9.59637C29.2383 9.32098 29.6367 9.10419 30.0996 8.94598C30.5684 8.78192 31.0898 8.69989 31.6641 8.69989C32.3555 8.69989 32.9648 8.81708 33.4922 9.05145C34.0254 9.28583 34.4414 9.64032 34.7402 10.1149C35.0449 10.5837 35.1973 11.1725 35.1973 11.8815V16.3112C35.1973 16.6276 35.2236 16.9645 35.2764 17.322C35.335 17.6794 35.4199 17.987 35.5312 18.2448V18.3854H33.835C33.7529 18.1979 33.6885 17.9489 33.6416 17.6384C33.5947 17.322 33.5713 17.029 33.5713 16.7595ZM33.8525 12.6198L33.8701 13.7624H32.2266C31.7637 13.7624 31.3506 13.8005 30.9873 13.8766C30.624 13.947 30.3193 14.0554 30.0732 14.2018C29.8271 14.3483 29.6396 14.5329 29.5107 14.7556C29.3818 14.9724 29.3174 15.2272 29.3174 15.5202C29.3174 15.819 29.3848 16.0915 29.5195 16.3376C29.6543 16.5837 29.8564 16.78 30.126 16.9265C30.4014 17.0671 30.7383 17.1374 31.1367 17.1374C31.6348 17.1374 32.0742 17.0319 32.4551 16.821C32.8359 16.61 33.1377 16.3522 33.3604 16.0475C33.5889 15.7429 33.7119 15.447 33.7295 15.1599L34.4238 15.9421C34.3828 16.1882 34.2715 16.4606 34.0898 16.7595C33.9082 17.0583 33.665 17.3454 33.3604 17.6208C33.0615 17.8903 32.7041 18.1159 32.2881 18.2975C31.8779 18.4733 31.415 18.5612 30.8994 18.5612C30.2549 18.5612 29.6895 18.4352 29.2031 18.1833C28.7227 17.9313 28.3477 17.5944 28.0781 17.1725C27.8145 16.7448 27.6826 16.2673 27.6826 15.7399C27.6826 15.2302 27.7822 14.7819 27.9814 14.3952C28.1807 14.0026 28.4678 13.6774 28.8428 13.4196C29.2178 13.1559 29.6689 12.9567 30.1963 12.822C30.7236 12.6872 31.3125 12.6198 31.9629 12.6198H33.8525ZM39.3809 10.3698V18.3854H37.7549V8.87567H39.3369L39.3809 10.3698ZM42.3516 8.82294L42.3428 10.3347C42.208 10.3054 42.0791 10.2878 41.9561 10.2819C41.8389 10.2702 41.7041 10.2643 41.5518 10.2643C41.1768 10.2643 40.8457 10.3229 40.5586 10.4401C40.2715 10.5573 40.0283 10.7214 39.8291 10.9323C39.6299 11.1432 39.4717 11.3952 39.3545 11.6882C39.2432 11.9753 39.1699 12.2917 39.1348 12.6374L38.6777 12.9011C38.6777 12.3268 38.7334 11.7878 38.8447 11.2839C38.9619 10.78 39.1406 10.3347 39.3809 9.94794C39.6211 9.55536 39.9258 9.25067 40.2949 9.03387C40.6699 8.81122 41.1152 8.69989 41.6309 8.69989C41.748 8.69989 41.8828 8.71454 42.0352 8.74384C42.1875 8.76727 42.293 8.79364 42.3516 8.82294Z" fill="#FAFAFA"/>
<path d="M47.4668 14.5182L50.0068 5.58856H51.2373L50.5254 9.06024L47.792 18.3854H46.5703L47.4668 14.5182ZM44.8389 5.58856L46.8604 14.3425L47.4668 18.3854H46.2539L43.1514 5.58856H44.8389ZM54.5244 14.3337L56.502 5.58856H58.1982L55.1045 18.3854H53.8916L54.5244 14.3337ZM51.4219 5.58856L53.8916 14.5182L54.7881 18.3854H53.5664L50.9297 9.06024L50.209 5.58856H51.4219ZM65.1416 16.7595V11.864C65.1416 11.489 65.0654 11.1638 64.9131 10.8884C64.7666 10.6071 64.5439 10.3903 64.2451 10.238C63.9463 10.0856 63.5771 10.0095 63.1377 10.0095C62.7275 10.0095 62.3672 10.0798 62.0566 10.2204C61.752 10.361 61.5117 10.5456 61.3359 10.7741C61.166 11.0026 61.0811 11.2487 61.0811 11.5124H59.4551C59.4551 11.1725 59.543 10.8356 59.7188 10.5016C59.8945 10.1677 60.1465 9.86591 60.4746 9.59637C60.8086 9.32098 61.207 9.10419 61.6699 8.94598C62.1387 8.78192 62.6602 8.69989 63.2344 8.69989C63.9258 8.69989 64.5352 8.81708 65.0625 9.05145C65.5957 9.28583 66.0117 9.64032 66.3105 10.1149C66.6152 10.5837 66.7676 11.1725 66.7676 11.8815V16.3112C66.7676 16.6276 66.7939 16.9645 66.8467 17.322C66.9053 17.6794 66.9902 17.987 67.1016 18.2448V18.3854H65.4053C65.3232 18.1979 65.2588 17.9489 65.2119 17.6384C65.165 17.322 65.1416 17.029 65.1416 16.7595ZM65.4229 12.6198L65.4404 13.7624H63.7969C63.334 13.7624 62.9209 13.8005 62.5576 13.8766C62.1943 13.947 61.8896 14.0554 61.6436 14.2018C61.3975 14.3483 61.21 14.5329 61.0811 14.7556C60.9521 14.9724 60.8877 15.2272 60.8877 15.5202C60.8877 15.819 60.9551 16.0915 61.0898 16.3376C61.2246 16.5837 61.4268 16.78 61.6963 16.9265C61.9717 17.0671 62.3086 17.1374 62.707 17.1374C63.2051 17.1374 63.6445 17.0319 64.0254 16.821C64.4062 16.61 64.708 16.3522 64.9307 16.0475C65.1592 15.7429 65.2822 15.447 65.2998 15.1599L65.9941 15.9421C65.9531 16.1882 65.8418 16.4606 65.6602 16.7595C65.4785 17.0583 65.2354 17.3454 64.9307 17.6208C64.6318 17.8903 64.2744 18.1159 63.8584 18.2975C63.4482 18.4733 62.9854 18.5612 62.4697 18.5612C61.8252 18.5612 61.2598 18.4352 60.7734 18.1833C60.293 17.9313 59.918 17.5944 59.6484 17.1725C59.3848 16.7448 59.2529 16.2673 59.2529 15.7399C59.2529 15.2302 59.3525 14.7819 59.5518 14.3952C59.751 14.0026 60.0381 13.6774 60.4131 13.4196C60.7881 13.1559 61.2393 12.9567 61.7666 12.822C62.2939 12.6872 62.8828 12.6198 63.5332 12.6198H65.4229ZM74.8623 15.863C74.8623 15.6286 74.8096 15.4118 74.7041 15.2126C74.6045 15.0075 74.3965 14.8229 74.0801 14.6589C73.7695 14.489 73.3008 14.3425 72.6738 14.2194C72.1465 14.1081 71.6689 13.9763 71.2412 13.8239C70.8193 13.6716 70.459 13.487 70.1602 13.2702C69.8672 13.0534 69.6416 12.7985 69.4834 12.5056C69.3252 12.2126 69.2461 11.8698 69.2461 11.4772C69.2461 11.1022 69.3281 10.7477 69.4922 10.4138C69.6621 10.0798 69.8994 9.78387 70.2041 9.52606C70.5146 9.26825 70.8867 9.0661 71.3203 8.91962C71.7539 8.77313 72.2373 8.69989 72.7705 8.69989C73.5322 8.69989 74.1826 8.83466 74.7217 9.10419C75.2607 9.37372 75.6738 9.73407 75.9609 10.1852C76.248 10.6306 76.3916 11.1257 76.3916 11.6706H74.7656C74.7656 11.4069 74.6865 11.152 74.5283 10.9059C74.376 10.654 74.1504 10.446 73.8516 10.2819C73.5586 10.1179 73.1982 10.0358 72.7705 10.0358C72.3193 10.0358 71.9531 10.1061 71.6719 10.2468C71.3965 10.3815 71.1943 10.5544 71.0654 10.7653C70.9424 10.9763 70.8809 11.1989 70.8809 11.4333C70.8809 11.6091 70.9102 11.7673 70.9688 11.9079C71.0332 12.0427 71.1445 12.1686 71.3027 12.2858C71.4609 12.3972 71.6836 12.5026 71.9707 12.6022C72.2578 12.7018 72.624 12.8015 73.0693 12.9011C73.8486 13.0768 74.4902 13.2878 74.9941 13.5339C75.498 13.78 75.873 14.0817 76.1191 14.4391C76.3652 14.7966 76.4883 15.2302 76.4883 15.7399C76.4883 16.1559 76.4004 16.5368 76.2246 16.8825C76.0547 17.2282 75.8057 17.527 75.4775 17.779C75.1553 18.0251 74.7686 18.2184 74.3174 18.3591C73.8721 18.4938 73.3711 18.5612 72.8145 18.5612C71.9766 18.5612 71.2676 18.4118 70.6875 18.113C70.1074 17.8141 69.668 17.4274 69.3691 16.9528C69.0703 16.4782 68.9209 15.9772 68.9209 15.4499H70.5557C70.5791 15.8952 70.708 16.2497 70.9424 16.5134C71.1768 16.7712 71.4639 16.9557 71.8037 17.0671C72.1436 17.1725 72.4805 17.2253 72.8145 17.2253C73.2598 17.2253 73.6318 17.1667 73.9307 17.0495C74.2354 16.9323 74.4668 16.7712 74.625 16.5661C74.7832 16.361 74.8623 16.1266 74.8623 15.863ZM80.25 4.88544V18.3854H78.624V4.88544H80.25ZM79.8633 13.2702L79.1865 13.2438C79.1924 12.5934 79.2891 11.9929 79.4766 11.4421C79.6641 10.8854 79.9277 10.402 80.2676 9.99188C80.6074 9.58173 81.0117 9.26532 81.4805 9.04266C81.9551 8.81415 82.4795 8.69989 83.0537 8.69989C83.5225 8.69989 83.9443 8.76434 84.3193 8.89325C84.6943 9.0163 85.0137 9.21552 85.2773 9.49091C85.5469 9.7663 85.752 10.1237 85.8926 10.5632C86.0332 10.9968 86.1035 11.527 86.1035 12.154V18.3854H84.4688V12.1364C84.4688 11.6384 84.3955 11.2399 84.249 10.9411C84.1025 10.6364 83.8887 10.4167 83.6074 10.2819C83.3262 10.1413 82.9805 10.071 82.5703 10.071C82.166 10.071 81.7969 10.1559 81.4629 10.3259C81.1348 10.4958 80.8506 10.7302 80.6104 11.029C80.376 11.3278 80.1914 11.6706 80.0566 12.0573C79.9277 12.4382 79.8633 12.8425 79.8633 13.2702Z" fill="#374AF0"/>
<path d="M11.7333 12.794C11.7333 15.8861 8.86059 18.3928 5.7081 18.3928C2.5556 18.3928 0 15.8861 0 12.794C0 9.70191 0.95134 3.48828 2.53692 0C5.7081 1.58558 12.3675 8.24503 11.7333 12.794Z" fill="#374AF0"/>
</svg>
