<svg width="12" height="13" viewBox="0 0 12 13" fill="none" xmlns="http://www.w3.org/2000/svg">
<path d="M0 8.9521C0 9.65739 0.573574 10.231 1.27887 10.231H3.57189L5.75492 12.414L7.93795 10.231H10.231C10.9363 10.231 11.5098 9.65739 11.5098 8.9521V1.27887C11.5098 0.573574 10.9363 0 10.231 0H1.27887C0.573574 0 0 0.573574 0 1.27887V8.9521ZM1.27887 1.27887H10.231V8.9521H7.4085L5.75492 10.6057L4.10134 8.9521H1.27887V1.27887Z" fill="#343434"/>
<path d="M5.11557 7.67322H6.39444V5.75492H8.31275V4.47605H6.39444V2.55774H5.11557V4.47605H3.19727V5.75492H5.11557V7.67322Z" fill="#343434"/>
</svg>
