<svg width="21" height="23" viewBox="0 0 21 23" fill="none" xmlns="http://www.w3.org/2000/svg">
<path d="M9 4C5.84591 4 3.27273 6.59804 3.27273 9.78261C3.27273 11.7479 4.26273 13.4868 5.75264 14.5326C2.394 15.856 0 19.1603 0 23H1.63636C1.63636 19.3669 4.24718 16.3302 7.67045 15.6941L8.18182 17.2174H9.81818L10.3295 15.6941C13.7528 16.3302 16.3636 19.3669 16.3636 23H18C18 19.1603 15.606 15.856 12.2474 14.5326C13.7365 13.4868 14.7273 11.7479 14.7273 9.78261C14.7273 6.59804 12.1541 4 9 4ZM9 5.65217C11.2688 5.65217 13.0909 7.49187 13.0909 9.78261C13.0909 12.0733 11.2688 13.913 9 13.913C6.73118 13.913 4.90909 12.0733 4.90909 9.78261C4.90909 7.49187 6.73118 5.65217 9 5.65217ZM8.18182 18.0435L7.36364 23H10.6364L9.81818 18.0435H8.18182Z" fill="#FAFAFA"/>
<line x1="17.6111" y1="0.5" x2="17.6111" y2="6.5" stroke="#FAFAFA" stroke-linecap="round"/>
<line x1="14.5" y1="3.38892" x2="20.5" y2="3.38892" stroke="#FAFAFA" stroke-linecap="round"/>
</svg>
