<svg width="20" height="20" viewBox="0 0 20 20" fill="none" xmlns="http://www.w3.org/2000/svg">
<path d="M9.46664 0C12.6506 0 15.2316 2.566 15.2316 5.732C15.232 6.56158 15.0514 7.38126 14.7026 8.13391C14.3537 8.88657 13.8449 9.5541 13.2116 10.09C13.4816 10.224 13.7276 10.358 13.9496 10.493C14.4276 10.783 14.9236 11.143 15.4396 11.572C15.5092 11.6298 15.5667 11.7007 15.6087 11.7808C15.6508 11.8609 15.6765 11.9485 15.6845 12.0386C15.6925 12.1287 15.6826 12.2194 15.6553 12.3057C15.6281 12.3919 15.584 12.4719 15.5256 12.541C15.4075 12.6813 15.2386 12.769 15.0559 12.7852C14.8732 12.8013 14.6915 12.7444 14.5506 12.627C14.1343 12.2748 13.6924 11.9539 13.2286 11.667C12.777 11.4006 12.3076 11.1658 11.8236 10.964C11.1036 11.286 10.3056 11.464 9.46664 11.464C8.57133 11.4653 7.68802 11.2582 6.88664 10.859L6.84464 10.879C4.89464 11.635 3.47164 12.753 2.55264 14.237C1.63064 15.726 1.25364 17.39 1.42264 19.251C1.43046 19.3412 1.42041 19.4321 1.39307 19.5185C1.36573 19.6048 1.32163 19.6849 1.26331 19.7542C1.20498 19.8235 1.13356 19.8806 1.05314 19.9223C0.972725 19.9639 0.884881 19.9893 0.794637 19.997C0.612598 20.0137 0.431377 19.9575 0.29076 19.8406C0.150144 19.7238 0.0616245 19.556 0.0446374 19.374C-0.150363 17.222 0.293637 15.261 1.37464 13.516C2.32464 11.98 3.72164 10.786 5.54864 9.934C4.96622 9.40001 4.50133 8.75066 4.18352 8.02723C3.8657 7.30381 3.70194 6.52216 3.70264 5.732C3.70264 2.566 6.28264 0 9.46664 0ZM16.8676 12.693C17.2476 12.693 17.5556 13.003 17.5556 13.384V15.136H19.3076C19.3983 15.1357 19.4882 15.1534 19.5721 15.1879C19.656 15.2223 19.7322 15.273 19.7965 15.337C19.8608 15.401 19.9118 15.4771 19.9466 15.5608C19.9815 15.6445 19.9995 15.7343 19.9996 15.825C19.9988 16.0078 19.9255 16.1829 19.7958 16.3117C19.666 16.4405 19.4905 16.5125 19.3076 16.512H17.5556V18.265C17.5559 18.4478 17.4836 18.6233 17.3546 18.7528C17.2256 18.8824 17.0505 18.9555 16.8676 18.956C16.6848 18.9555 16.5097 18.8824 16.3807 18.7528C16.2517 18.6233 16.1794 18.4478 16.1796 18.265V16.512H14.4276C14.2448 16.5125 14.0692 16.4405 13.9395 16.3117C13.8098 16.1829 13.7364 16.0078 13.7356 15.825C13.7356 15.445 14.0456 15.137 14.4276 15.137L16.1796 15.136V13.384C16.1794 13.2012 16.2517 13.0257 16.3807 12.8962C16.5097 12.7666 16.6848 12.6935 16.8676 12.693ZM9.46764 1.376C7.04764 1.376 5.08564 3.326 5.08564 5.732C5.08564 8.138 7.04764 10.089 9.46664 10.089C11.8866 10.089 13.8476 8.139 13.8476 5.732C13.8476 3.326 11.8866 1.376 9.46764 1.376Z" fill="#FAFAFA"/>
</svg>
