<svg width="18" height="18" viewBox="0 0 18 18" fill="none" xmlns="http://www.w3.org/2000/svg">
<path d="M9 0C4.03754 0 0 4.03754 0 9C0 13.9625 4.03754 18 9 18C13.9625 18 18 13.9625 18 9C18 4.03754 13.9625 0 9 0ZM9 1.38462C13.2141 1.38462 16.6154 4.78592 16.6154 9C16.6154 13.2141 13.2141 16.6154 9 16.6154C4.78592 16.6154 1.38462 13.2141 1.38462 9C1.38462 4.78592 4.78592 1.38462 9 1.38462ZM6.38308 5.38615L5.38615 6.38308L8.00585 9L5.38754 11.6169L6.38446 12.6138L9 9.99485L11.6169 12.6118L12.6138 11.6169L9.99485 9L12.6118 6.38308L11.6169 5.38615L9 8.00585L6.38308 5.38754V5.38615Z" fill="#343434"/>
</svg>
