<svg width="18" height="17" viewBox="0 0 18 17" fill="none" xmlns="http://www.w3.org/2000/svg">
<path d="M17.9975 4.39755C17.9977 4.38866 18 4.38073 18 4.37184C17.9994 4.13742 17.9163 3.91145 17.7665 3.73699L17.7711 3.73435L15.9623 0.459928C15.9306 0.327962 15.8575 0.210923 15.7546 0.127541C15.6518 0.0441586 15.5252 -0.000745418 15.395 1.43146e-05C15.376 1.43146e-05 15.358 0.00385875 15.3394 0.00578107V1.43146e-05H2.61484V0.000975402C2.61185 0.000975402 2.60886 1.43146e-05 2.60588 1.43146e-05C2.50292 -0.000740872 2.40177 0.0283982 2.31372 0.0841869C2.22566 0.139976 2.15415 0.220224 2.10713 0.315995L2.1053 0.314793L0.217889 3.73435L0.221337 3.73627C0.077723 3.91365 -0.000745522 4.13872 5.33914e-06 4.37112C5.33914e-06 4.38241 0.00276335 4.39298 0.00322302 4.40428V15.9889C0.00276335 16.0004 5.33914e-06 16.0112 5.33914e-06 16.023C5.33914e-06 16.5718 0.417616 17.0007 0.94118 17C0.951063 17 0.960257 16.9974 0.96991 16.9971H17.0285C17.0384 16.9974 17.0476 17 17.0574 17C17.5822 17 17.9998 16.5718 17.9998 16.0239C17.9998 16.0153 17.9975 16.0076 17.9972 15.999V4.39755H17.9975ZM12.0827 10.3003L9.23478 14.4885C9.18284 14.5649 9.09918 14.6098 9.00954 14.6103H9.00862C8.91991 14.6103 8.83602 14.5654 8.78407 14.4895L5.9178 10.3007C5.88816 10.2575 5.87052 10.2066 5.86683 10.1535C5.86313 10.1005 5.87354 10.0474 5.89688 10.0001C5.94469 9.90378 6.03938 9.84298 6.14304 9.84298H7.48367L7.4839 6.0815C7.4839 5.92122 7.60755 5.79195 7.76039 5.79195H10.2401C10.3929 5.79195 10.5168 5.92146 10.5168 6.08125V9.84298H11.8567C11.9075 9.84304 11.9574 9.85769 12.0008 9.88534C12.0441 9.91299 12.0794 9.95258 12.1027 9.99978C12.1261 10.047 12.1365 10.1 12.133 10.153C12.1294 10.2059 12.112 10.2569 12.0827 10.3003V10.3003ZM1.73158 3.38977L2.94121 1.19858H15.0466L16.2569 3.38977H1.73158Z" fill="#FAFAFA"/>
</svg>
