<svg width="14" height="4" viewBox="0 0 14 4" fill="none" xmlns="http://www.w3.org/2000/svg">
<path d="M2.27301 1.77959C2.28076 1.36545 1.97089 1.02306 1.5809 1.01483C1.1909 1.0066 0.868463 1.33565 0.860713 1.74978C0.852963 2.16391 1.16283 2.50631 1.55283 2.51454C1.94282 2.52277 2.26526 2.19372 2.27301 1.77959Z" stroke="#736D6D" stroke-width="1.5" stroke-linecap="round" stroke-linejoin="round"/>
<path d="M7.45172 1.88908C7.45947 1.47495 7.1496 1.13256 6.75961 1.12433C6.36961 1.1161 6.04717 1.44515 6.03942 1.85928C6.03167 2.27341 6.34154 2.6158 6.73154 2.62403C7.12153 2.63226 7.44397 2.30321 7.45172 1.88908Z" stroke="#736D6D" stroke-width="1.5" stroke-linecap="round" stroke-linejoin="round"/>
<path d="M12.6304 1.99821C12.6382 1.58408 12.3283 1.24169 11.9383 1.23346C11.5483 1.22523 11.2259 1.55428 11.2181 1.96841C11.2104 2.38254 11.5203 2.72493 11.9103 2.73316C12.3002 2.74139 12.6227 2.41235 12.6304 1.99821Z" stroke="#736D6D" stroke-width="1.5" stroke-linecap="round" stroke-linejoin="round"/>
</svg>
