<svg width="18" height="18" viewBox="0 0 18 18" fill="none" xmlns="http://www.w3.org/2000/svg">
<path d="M15.6667 7.05833V6.91667C15.6717 5.49912 15.222 4.11733 14.3835 2.97435C13.545 1.83136 12.362 0.987468 11.0083 0.566667H10.9583C10.2592 0.353528 9.53078 0.252278 8.80001 0.266667C7.05987 0.362161 5.42176 1.11812 4.22001 2.38027C3.01826 3.64242 2.34347 5.3156 2.33335 7.05833C1.84502 7.23012 1.42206 7.54925 1.12286 7.97168C0.823657 8.39411 0.662964 8.89901 0.662964 9.41667C0.662964 9.93432 0.823657 10.4392 1.12286 10.8616C1.42206 11.2841 1.84502 11.6032 2.33335 11.775C2.50499 13.4206 3.28245 14.9437 4.51458 16.048C5.74671 17.1523 7.34546 17.7589 9.00001 17.75H9.19168C10.7917 17.6726 12.3124 17.0307 13.4841 15.9384C14.6557 14.8461 15.4024 13.374 15.5917 11.7833C16.0858 11.6213 16.517 11.3092 16.8254 10.8905C17.1337 10.4719 17.3039 9.96745 17.3122 9.44755C17.3204 8.92764 17.1663 8.41809 16.8714 7.98986C16.5765 7.56162 16.1554 7.236 15.6667 7.05833ZM9.15001 16.0833C7.94368 16.1182 6.76543 15.7156 5.83268 14.9498C4.89994 14.184 4.27565 13.1067 4.07501 11.9167H13.8833C13.68 13.0432 13.1017 14.068 12.2424 14.8244C11.3831 15.5808 10.2933 16.0245 9.15001 16.0833ZM14.8333 10.25H3.16668C2.94567 10.25 2.73371 10.1622 2.57743 10.0059C2.42114 9.84964 2.33335 9.63768 2.33335 9.41667C2.33335 9.19565 2.42114 8.98369 2.57743 8.82741C2.73371 8.67113 2.94567 8.58333 3.16668 8.58333H4.83335C5.05436 8.58333 5.26632 8.49553 5.4226 8.33925C5.57888 8.18297 5.66668 7.97101 5.66668 7.75C5.66668 7.52899 5.57888 7.31702 5.4226 7.16074C5.26632 7.00446 5.05436 6.91667 4.83335 6.91667H4.00001C4.03732 6.05218 4.2844 5.20974 4.71995 4.46206C5.15549 3.71437 5.76642 3.08388 6.50001 2.625V5.25C6.50001 5.47101 6.58781 5.68298 6.74409 5.83926C6.90037 5.99554 7.11233 6.08333 7.33335 6.08333C7.55436 6.08333 7.76632 5.99554 7.9226 5.83926C8.07888 5.68298 8.16668 5.47101 8.16668 5.25V1.99167C8.39287 1.95388 8.62101 1.92884 8.85001 1.91667H9.00001C9.27929 1.9206 9.55786 1.94567 9.83335 1.99167V5.25C9.83335 5.47101 9.92115 5.68298 10.0774 5.83926C10.2337 5.99554 10.4457 6.08333 10.6667 6.08333C10.8877 6.08333 11.0997 5.99554 11.2559 5.83926C11.4122 5.68298 11.5 5.47101 11.5 5.25V2.6C11.8535 2.80469 12.1833 3.04783 12.4833 3.325C12.9638 3.79158 13.3456 4.34993 13.6062 4.96692C13.8667 5.5839 14.0006 6.24693 14 6.91667H13.1667C12.9457 6.91667 12.7337 7.00446 12.5774 7.16074C12.4211 7.31702 12.3333 7.52899 12.3333 7.75C12.3333 7.97101 12.4211 8.18297 12.5774 8.33925C12.7337 8.49553 12.9457 8.58333 13.1667 8.58333H14.8333C15.0544 8.58333 15.2663 8.67113 15.4226 8.82741C15.5789 8.98369 15.6667 9.19565 15.6667 9.41667C15.6667 9.63768 15.5789 9.84964 15.4226 10.0059C15.2663 10.1622 15.0544 10.25 14.8333 10.25Z" fill="#FAFAFA"/>
</svg>
