<svg width="15" height="15" viewBox="0 0 15 15" fill="none" xmlns="http://www.w3.org/2000/svg">
<path d="M7.5 0C6.01664 0 4.5666 0.439867 3.33323 1.26398C2.09986 2.08809 1.13856 3.25943 0.570907 4.62987C0.00324965 6.00032 -0.145275 7.50832 0.144114 8.96318C0.433503 10.418 1.14781 11.7544 2.1967 12.8033C3.2456 13.8522 4.58197 14.5665 6.03683 14.8559C7.49168 15.1453 8.99968 14.9968 10.3701 14.4291C11.7406 13.8614 12.9119 12.9001 13.736 11.6668C14.5601 10.4334 15 8.98336 15 7.5C15 5.51088 14.2098 3.60322 12.8033 2.1967C11.3968 0.790177 9.48913 0 7.5 0ZM7.5 13.75C6.26387 13.75 5.0555 13.3834 4.02769 12.6967C2.99988 12.0099 2.1988 11.0338 1.72576 9.89177C1.25271 8.74973 1.12894 7.49307 1.3701 6.28069C1.61125 5.06831 2.20651 3.95466 3.08059 3.08058C3.95466 2.2065 5.06831 1.61125 6.28069 1.37009C7.49307 1.12893 8.74974 1.25271 9.89178 1.72575C11.0338 2.1988 12.0099 2.99988 12.6967 4.02769C13.3834 5.05549 13.75 6.26387 13.75 7.5C13.75 8.32076 13.5883 9.13349 13.2743 9.89177C12.9602 10.6501 12.4998 11.3391 11.9194 11.9194C11.3391 12.4998 10.6501 12.9602 9.89178 13.2742C9.13349 13.5883 8.32077 13.75 7.5 13.75Z" fill="#343434"/>
<path d="M7.5 8.79376C7.28451 8.79376 7.07785 8.70816 6.92548 8.55579C6.7731 8.40341 6.6875 8.19675 6.6875 7.98126V4.23126C6.6875 4.01577 6.7731 3.80911 6.92548 3.65674C7.07785 3.50436 7.28451 3.41876 7.5 3.41876C7.71549 3.41876 7.92215 3.50436 8.07452 3.65674C8.2269 3.80911 8.3125 4.01577 8.3125 4.23126V7.98126C8.3125 8.19675 8.2269 8.40341 8.07452 8.55579C7.92215 8.70816 7.71549 8.79376 7.5 8.79376Z" fill="#343434"/>
<path d="M7.46875 11.575C7.98652 11.575 8.40625 11.1553 8.40625 10.6375C8.40625 10.1197 7.98652 9.70001 7.46875 9.70001C6.95098 9.70001 6.53125 10.1197 6.53125 10.6375C6.53125 11.1553 6.95098 11.575 7.46875 11.575Z" fill="#343434"/>
</svg>
