<svg width="16" height="16" viewBox="0 0 16 16" fill="none" xmlns="http://www.w3.org/2000/svg">
<mask id="path-1-inside-1_209_95" fill="white">
<path d="M8 0C6.41775 0 4.87103 0.469192 3.55544 1.34824C2.23985 2.22729 1.21447 3.47672 0.608967 4.93853C0.00346625 6.40034 -0.15496 8.00887 0.153721 9.56072C0.462403 11.1126 1.22433 12.538 2.34315 13.6569C3.46197 14.7757 4.88743 15.5376 6.43928 15.8463C7.99113 16.155 9.59966 15.9965 11.0615 15.391C12.5233 14.7855 13.7727 13.7602 14.6518 12.4446C15.5308 11.129 16 9.58225 16 8C16 5.87827 15.1571 3.84344 13.6569 2.34315C12.1566 0.842855 10.1217 0 8 0V0ZM8 15C6.61553 15 5.26215 14.5895 4.11101 13.8203C2.95987 13.0511 2.06266 11.9579 1.53285 10.6788C1.00303 9.3997 0.86441 7.99223 1.13451 6.63437C1.4046 5.2765 2.07129 4.02922 3.05026 3.05025C4.02922 2.07128 5.2765 1.4046 6.63437 1.1345C7.99224 0.864406 9.3997 1.00303 10.6788 1.53284C11.9579 2.06266 13.0511 2.95986 13.8203 4.11101C14.5895 5.26215 15 6.61553 15 8C15 9.85651 14.2625 11.637 12.9497 12.9497C11.637 14.2625 9.85652 15 8 15Z"/>
</mask>
<path d="M8 0C6.41775 0 4.87103 0.469192 3.55544 1.34824C2.23985 2.22729 1.21447 3.47672 0.608967 4.93853C0.00346625 6.40034 -0.15496 8.00887 0.153721 9.56072C0.462403 11.1126 1.22433 12.538 2.34315 13.6569C3.46197 14.7757 4.88743 15.5376 6.43928 15.8463C7.99113 16.155 9.59966 15.9965 11.0615 15.391C12.5233 14.7855 13.7727 13.7602 14.6518 12.4446C15.5308 11.129 16 9.58225 16 8C16 5.87827 15.1571 3.84344 13.6569 2.34315C12.1566 0.842855 10.1217 0 8 0V0ZM8 15C6.61553 15 5.26215 14.5895 4.11101 13.8203C2.95987 13.0511 2.06266 11.9579 1.53285 10.6788C1.00303 9.3997 0.86441 7.99223 1.13451 6.63437C1.4046 5.2765 2.07129 4.02922 3.05026 3.05025C4.02922 2.07128 5.2765 1.4046 6.63437 1.1345C7.99224 0.864406 9.3997 1.00303 10.6788 1.53284C11.9579 2.06266 13.0511 2.95986 13.8203 4.11101C14.5895 5.26215 15 6.61553 15 8C15 9.85651 14.2625 11.637 12.9497 12.9497C11.637 14.2625 9.85652 15 8 15Z" fill="black"/>
<path d="M16 8H17H16ZM8 -1C6.21997 -1 4.47991 -0.472159 2.99987 0.516773L4.11101 2.17971C5.26215 1.41054 6.61553 1 8 1V-1ZM2.99987 0.516773C1.51983 1.50571 0.366276 2.91131 -0.314912 4.55585L1.53285 5.32121C2.06266 4.04213 2.95987 2.94888 4.11101 2.17971L2.99987 0.516773ZM-0.314912 4.55585C-0.996101 6.20038 -1.17433 8.00998 -0.827064 9.75581L1.13451 9.36563C0.86441 8.00776 1.00303 6.6003 1.53285 5.32121L-0.314912 4.55585ZM-0.827064 9.75581C-0.479797 11.5016 0.37737 13.1053 1.63604 14.364L3.05026 12.9497C2.07129 11.9708 1.4046 10.7235 1.13451 9.36563L-0.827064 9.75581ZM1.63604 14.364C2.89471 15.6226 4.49836 16.4798 6.24419 16.8271L6.63437 14.8655C5.2765 14.5954 4.02922 13.9287 3.05026 12.9497L1.63604 14.364ZM6.24419 16.8271C7.99002 17.1743 9.79962 16.9961 11.4442 16.3149L10.6788 14.4672C9.3997 14.997 7.99224 15.1356 6.63437 14.8655L6.24419 16.8271ZM11.4442 16.3149C13.0887 15.6337 14.4943 14.4802 15.4832 13.0001L13.8203 11.889C13.0511 13.0401 11.9579 13.9373 10.6788 14.4672L11.4442 16.3149ZM15.4832 13.0001C16.4722 11.5201 17 9.78003 17 8H15C15 9.38447 14.5895 10.7378 13.8203 11.889L15.4832 13.0001ZM17 8C17 5.61305 16.0518 3.32387 14.364 1.63604L12.9497 3.05025C14.2625 4.36301 15 6.14348 15 8H17ZM14.364 1.63604C12.6761 -0.0517885 10.3869 -1 8 -1V1C9.85652 1 11.637 1.7375 12.9497 3.05025L14.364 1.63604ZM8 14C6.81331 14 5.65328 13.6481 4.66658 12.9888L3.55544 14.6518C4.87103 15.5308 6.41775 16 8 16V14ZM4.66658 12.9888C3.67989 12.3295 2.91085 11.3925 2.45673 10.2961L0.608967 11.0615C1.21447 12.5233 2.23985 13.7727 3.55544 14.6518L4.66658 12.9888ZM2.45673 10.2961C2.0026 9.19974 1.88378 7.99334 2.11529 6.82946L0.153721 6.43928C-0.154961 7.99112 0.00346611 9.59966 0.608967 11.0615L2.45673 10.2961ZM2.11529 6.82946C2.3468 5.66557 2.91825 4.59647 3.75736 3.75736L2.34315 2.34314C1.22433 3.46196 0.462403 4.88743 0.153721 6.43928L2.11529 6.82946ZM3.75736 3.75736C4.59648 2.91824 5.66557 2.3468 6.82946 2.11529L6.43928 0.153718C4.88743 0.462399 3.46197 1.22432 2.34315 2.34314L3.75736 3.75736ZM6.82946 2.11529C7.99335 1.88378 9.19975 2.0026 10.2961 2.45672L11.0615 0.608963C9.59966 0.00346254 7.99113 -0.154964 6.43928 0.153718L6.82946 2.11529ZM10.2961 2.45672C11.3925 2.91085 12.3295 3.67988 12.9888 4.66658L14.6518 3.55544C13.7727 2.23984 12.5233 1.21446 11.0615 0.608963L10.2961 2.45672ZM12.9888 4.66658C13.6481 5.65327 14 6.81331 14 8H16C16 6.41775 15.5308 4.87103 14.6518 3.55544L12.9888 4.66658ZM14 8C14 9.5913 13.3679 11.1174 12.2426 12.2426L13.6569 13.6569C15.1571 12.1566 16 10.1217 16 8H14ZM12.2426 12.2426C11.1174 13.3679 9.5913 14 8 14V16C10.1217 16 12.1566 15.1571 13.6569 13.6569L12.2426 12.2426Z" fill="#FAFAFA" mask="url(#path-1-inside-1_209_95)"/>
<path d="M8.145 3.91507C8.14249 3.91505 8.13999 3.91504 8.13748 3.91502L8.145 3.45998V3.91507ZM9.95136 4.56988C10.3587 4.93484 10.5983 5.44887 10.605 6.06261V6.08498C10.605 6.66864 10.4248 7.09609 10.1349 7.41438C10.3949 7.06374 10.535 6.63515 10.535 6.14498V6.11998C10.535 5.25549 10.0633 4.53543 9.30486 4.17122C9.55668 4.27399 9.77294 4.41004 9.95136 4.56988ZM7.885 8.46174C7.88667 8.46159 7.88833 8.46144 7.89 8.46129V8.72498L7.88999 9.75498L7.885 9.75497L7.885 8.46174Z" fill="black" stroke="#FAFAFA"/>
<path d="M8.01501 12.1C8.01501 12.1691 7.95905 12.225 7.89001 12.225C7.82098 12.225 7.76501 12.1691 7.76501 12.1C7.76501 12.031 7.82098 11.975 7.89001 11.975C7.95905 11.975 8.01501 12.031 8.01501 12.1Z" fill="black" stroke="#FAFAFA"/>
</svg>
