<svg width="16" height="18" viewBox="0 0 16 18" fill="none" xmlns="http://www.w3.org/2000/svg">
<path d="M15.6925 12.7368C15.0025 12.0069 13.7114 10.909 13.7114 7.3125C13.7114 4.58086 11.7657 2.39414 9.14214 1.85766V1.125C9.14214 0.503789 8.63071 0 8 0C7.36929 0 6.85786 0.503789 6.85786 1.125V1.85766C4.2343 2.39414 2.28859 4.58086 2.28859 7.3125C2.28859 10.909 0.997522 12.0069 0.307524 12.7368C0.0932387 12.9635 -0.00176102 13.2346 2.46924e-05 13.5C0.00395325 14.0766 0.463595 14.625 1.14645 14.625H14.8536C15.5364 14.625 15.9964 14.0766 16 13.5C16.0018 13.2346 15.9068 12.9632 15.6925 12.7368ZM2.4118 12.9375C3.16966 11.9542 3.99823 10.3243 4.00216 7.33289C4.00216 7.32586 4.00001 7.31953 4.00001 7.3125C4.00001 5.13773 5.79072 3.375 8 3.375C10.2093 3.375 12 5.13773 12 7.3125C12 7.31953 11.9978 7.32586 11.9978 7.33289C12.0018 10.3247 12.8303 11.9545 13.5882 12.9375H2.4118ZM8 18C9.26142 18 10.2846 16.9928 10.2846 15.75H5.71536C5.71536 16.9928 6.73857 18 8 18Z" fill="#FAFAFA"/>
</svg>
