<svg width="17" height="20" viewBox="0 0 17 20" fill="none" xmlns="http://www.w3.org/2000/svg">
<path d="M8.37495 19.1438C9.00957 19.1438 9.6182 18.8917 10.0669 18.4429C10.5157 17.9942 10.7678 17.3856 10.7678 16.7509H5.98211C5.98211 17.3856 6.23421 17.9942 6.68296 18.4429C7.1317 18.8917 7.74033 19.1438 8.37495 19.1438ZM9.56539 1.31591C9.58209 1.14956 9.56374 0.981546 9.51151 0.822717C9.45929 0.663889 9.37436 0.517769 9.26219 0.393782C9.15003 0.269795 9.01312 0.170693 8.8603 0.102868C8.70748 0.0350426 8.54215 0 8.37495 0C8.20776 0 8.04242 0.0350426 7.8896 0.102868C7.73678 0.170693 7.59988 0.269795 7.48771 0.393782C7.37555 0.517769 7.29062 0.663889 7.23839 0.822717C7.18617 0.981546 7.16781 1.14956 7.18451 1.31591C5.83222 1.59097 4.61654 2.32493 3.74332 3.3935C2.87011 4.46207 2.39302 5.79959 2.39284 7.17958C2.39284 8.49325 1.79463 14.3581 0 15.5545H16.7499C14.9553 14.3581 14.3571 8.49325 14.3571 7.17958C14.3571 4.28424 12.2992 1.86746 9.56539 1.31591Z" fill="#FAFAFA"/>
</svg>
