<svg width="18" height="19" viewBox="0 0 18 19" fill="none" xmlns="http://www.w3.org/2000/svg">
<path d="M9 0C5.84591 0 3.27273 2.59804 3.27273 5.78261C3.27273 7.74787 4.26273 9.48678 5.75264 10.5326C2.394 11.856 0 15.1603 0 19H1.63636C1.63636 15.3669 4.24718 12.3302 7.67045 11.6941L8.18182 13.2174H9.81818L10.3295 11.6941C13.7528 12.3302 16.3636 15.3669 16.3636 19H18C18 15.1603 15.606 11.856 12.2474 10.5326C13.7365 9.48678 14.7273 7.74787 14.7273 5.78261C14.7273 2.59804 12.1541 0 9 0ZM9 1.65217C11.2688 1.65217 13.0909 3.49187 13.0909 5.78261C13.0909 8.07335 11.2688 9.91304 9 9.91304C6.73118 9.91304 4.90909 8.07335 4.90909 5.78261C4.90909 3.49187 6.73118 1.65217 9 1.65217ZM8.18182 14.0435L7.36364 19H10.6364L9.81818 14.0435H8.18182Z" fill="#FAFAFA"/>
</svg>
