<svg width="20" height="18" viewBox="0 0 20 18" fill="none" xmlns="http://www.w3.org/2000/svg">
<path d="M9.9937 7.44912e-05C9.74911 0.000219273 9.51347 0.0899116 9.33329 0.251443L0.295156 8.03333C0.292326 8.03577 0.289526 8.03825 0.286756 8.04075C-0.00404874 8.30345 -0.0716497 8.73216 0.0747524 9.04506C0.221155 9.35814 0.56436 9.58197 0.953566 9.58217H3.284V17.1033C3.284 17.6168 3.74161 17.9998 4.24341 18H15.7564C16.2582 18 16.7158 17.6168 16.7158 17.1035V9.58217H19.0464C19.4356 9.58217 19.7788 9.35834 19.9252 9.04525C20.0716 8.73236 20.004 8.30345 19.7132 8.04075C19.7105 8.03825 19.7077 8.03577 19.7048 8.03333L10.6669 0.251443C10.4835 0.0869486 10.2427 -0.00296224 9.9937 7.44912e-05ZM10.0001 4.74366C12.1201 4.74366 13.8568 6.43508 13.8568 8.49935C13.8568 8.99642 13.7554 9.47182 13.5728 9.90717C13.5335 10.022 13.4842 10.1333 13.4256 10.24L10.4675 15.156C10.1551 15.5695 9.9055 15.6605 9.52969 15.1814L6.84765 10.6539C6.38963 10.0245 6.14352 9.27149 6.14344 8.49935C6.14344 6.43488 7.88007 4.74347 10.0001 4.74347V4.74366ZM10.0001 6.50344C8.85848 6.50344 7.95047 7.38762 7.95047 8.49935C7.95047 9.61088 8.85848 10.4951 10.0001 10.4951C11.1417 10.4951 12.0497 9.61088 12.0497 8.49935C12.0497 7.38762 11.1417 6.50363 10.0001 6.50363V6.50344Z" fill="#FAFAFA"/>
</svg>
