<svg width="17" height="18" viewBox="0 0 17 18" fill="none" xmlns="http://www.w3.org/2000/svg">
<path d="M16.7305 2.51357L15.5614 3.45857C13.9673 1.35214 11.4881 0 8.70419 0C3.89709 0 0.00622618 4.01786 7.42836e-06 8.98929C-0.00621132 13.965 3.89295 18 8.70419 18C12.4624 18 15.665 15.5357 16.8839 12.0836C16.915 11.9936 16.8694 11.8929 16.7823 11.8629L15.607 11.445C15.566 11.4305 15.5212 11.4331 15.482 11.4523C15.4429 11.4716 15.4126 11.5058 15.3976 11.5479C15.3603 11.655 15.3189 11.7621 15.2753 11.8671C14.9167 12.7457 14.4026 13.5343 13.7476 14.2114C13.0978 14.8844 12.3285 15.4213 11.4819 15.7929C10.6051 16.1764 9.67017 16.3714 8.70833 16.3714C7.74443 16.3714 6.81161 16.1764 5.93477 15.7929C5.08731 15.4229 4.31773 14.8857 3.66907 14.2114C3.01755 13.5398 2.49867 12.7436 2.14133 11.8671C1.77028 10.9586 1.58164 9.99429 1.58164 8.99786C1.58164 8.00143 1.77028 7.03714 2.14133 6.12857C2.49995 5.25 3.01403 4.46143 3.66907 3.78429C4.32411 3.10714 5.08695 2.57571 5.93477 2.20286C6.81161 1.81929 7.7465 1.62429 8.70833 1.62429C9.67224 1.62429 10.6051 1.81929 11.4819 2.20286C12.3294 2.57281 13.0989 3.10997 13.7476 3.78429C13.9528 3.99643 14.1456 4.22143 14.3239 4.45714L13.076 5.46429C13.0513 5.48403 13.0325 5.51058 13.0217 5.54088C13.011 5.57117 13.0087 5.60399 13.0152 5.63555C13.0217 5.66712 13.0367 5.69614 13.0585 5.7193C13.0802 5.74245 13.1078 5.75879 13.1382 5.76643L16.7782 6.68786C16.8818 6.71357 16.9834 6.63214 16.9834 6.52286L17 2.64643C16.9979 2.505 16.8383 2.42571 16.7305 2.51357Z" fill="#343434"/>
</svg>
