<svg width="13" height="10" viewBox="0 0 13 10" fill="none" xmlns="http://www.w3.org/2000/svg">
<path d="M8.94795 0.344527C8.84126 0.344527 8.74712 0.40246 8.69064 0.492577L8.6467 0.589132L5.39577 8.08822C5.29535 8.27489 5.23259 8.48087 5.23259 8.70617C5.23259 9.42067 5.79743 10 6.49406 10C7.09655 10 7.6049 9.56229 7.72414 8.97652L7.73042 8.95721L9.26175 0.666376C9.26175 0.48614 9.12368 0.344527 8.94795 0.344527ZM0.262044 3.60164C0.582117 3.92993 1.09674 3.95567 1.4482 3.65957C3.18036 2.20481 5.36439 1.61261 7.46055 1.88297L8.20739 0.157854C5.47735 -0.34423 2.58414 0.350964 0.318528 2.24987C-0.0831326 2.59103 -0.108236 3.22186 0.262044 3.60164ZM12.7386 3.60164C13.1089 3.22186 13.0838 2.59103 12.6759 2.24987C11.842 1.55157 10.9002 1.00114 9.88934 0.621317L9.55672 2.43655C10.2659 2.73908 10.9311 3.13818 11.5462 3.65314C11.9102 3.94924 12.4185 3.92993 12.7386 3.60164ZM10.2094 6.19574C10.586 5.80953 10.5609 5.14652 10.1216 4.8311C9.83286 4.61868 9.53161 4.43845 9.21781 4.27752L8.87264 6.15712C8.94167 6.20218 9.01071 6.24724 9.07347 6.29874C9.4312 6.55621 9.90817 6.50472 10.2094 6.19574ZM2.78497 6.18931C3.09877 6.51116 3.58202 6.5369 3.94602 6.27299C4.53596 5.84815 5.20749 5.59067 5.89156 5.48768L6.69489 3.63382C5.35811 3.5952 4.00878 3.98142 2.87284 4.81823C2.4398 5.14652 2.40842 5.80309 2.78497 6.18931Z" fill="#343434"/>
</svg>
