<svg width="19" height="16" viewBox="0 0 19 16" fill="none" xmlns="http://www.w3.org/2000/svg">
<path d="M6 16H2C1.46957 16 0.960859 15.7893 0.585787 15.4142C0.210714 15.0391 0 14.5304 0 14V2C0 1.46957 0.210714 0.960859 0.585787 0.585786C0.960859 0.210714 1.46957 0 2 0H6V2H2V14H6V16Z" fill="#FAFAFA"/>
<path d="M11.328 13.385L12.748 11.977L8.82797 8.02398H17.972C18.2372 8.02398 18.4915 7.91863 18.6791 7.73109C18.8666 7.54355 18.972 7.2892 18.972 7.02398C18.972 6.75877 18.8666 6.50441 18.6791 6.31688C18.4915 6.12934 18.2372 6.02398 17.972 6.02398H8.80997L12.79 2.07698L11.382 0.656982L4.99097 6.99398L11.328 13.385Z" fill="#FAFAFA"/>
</svg>
